<?xml version="1.0" standalone="no"?>
<!DOCTYPE svg PUBLIC "-//W3C//DTD SVG 20010904//EN"
 "http://www.w3.org/TR/2001/REC-SVG-20010904/DTD/svg10.dtd">
<svg version="1.0" xmlns="http://www.w3.org/2000/svg"
 width="660.000000pt" height="660.000000pt" viewBox="0 0 660.000000 660.000000"
 preserveAspectRatio="xMidYMid meet">

<g transform="translate(0.000000,660.000000) scale(0.100000,-0.100000)"
fill="#000000" stroke="none">
<path d="M100 3305 l0 -2125 3200 0 3200 0 0 2125 0 2125 -3200 0 -3200 0 0
-2125z m3480 1435 c314 -63 579 -211 797 -444 660 -708 458 -1852 -406 -2294
-152 -78 -315 -131 -466 -152 -114 -15 -339 -13 -447 4 -331 54 -657 235 -877
488 -88 101 -130 163 -197 293 -102 196 -151 382 -161 610 -11 278 51 538 187
778 228 400 648 680 1105 736 122 15 343 6 465 -19z"/>
<path d="M3065 4360 c26 -52 41 -67 25 -26 -5 13 -6 27 -2 32 4 4 2 4 -4 1 -7
-4 -14 3 -18 18 -4 14 -11 25 -16 25 -6 0 1 -22 15 -50z"/>
<path d="M3136 4380 c4 -19 10 -42 15 -50 11 -18 1 34 -13 65 -5 13 -6 9 -2
-15z"/>
<path d="M3462 4396 c10 -7 16 -15 14 -17 -3 -2 7 -5 20 -5 14 -1 21 2 17 9
-3 6 -1 7 6 3 6 -4 9 -11 6 -16 -3 -5 4 -14 16 -20 17 -10 23 -8 34 7 7 10 12
19 10 21 -4 4 -117 31 -130 31 -5 0 -2 -6 7 -13z"/>
<path d="M3427 4378 c-4 -14 -4 -34 0 -44 4 -11 3 -15 -4 -11 -14 9 -26 -37
-18 -66 4 -14 3 -17 -2 -10 -6 8 -17 -19 -33 -75 -57 -207 -79 -275 -79 -250
-1 15 -5 29 -10 32 -5 4 -7 -4 -4 -16 3 -13 4 -21 1 -18 -3 3 -70 109 -148
235 -78 127 -144 232 -146 234 -1 2 -35 -9 -74 -25 -70 -27 -71 -28 -52 -46
18 -19 20 -19 61 3 23 12 43 20 45 18 2 -2 20 -36 40 -74 19 -39 47 -81 60
-95 18 -16 23 -27 16 -35 -7 -8 -5 -23 4 -46 14 -33 25 -48 88 -115 24 -26 27
-35 19 -57 -8 -19 -6 -28 5 -38 21 -18 57 -20 43 -3 -6 7 -6 14 -1 18 13 8 22
-17 15 -43 -3 -13 0 -23 10 -26 12 -5 22 -55 10 -55 -2 0 -47 34 -99 76 -52
42 -96 75 -97 73 -2 -2 -11 -16 -20 -31 l-17 -27 98 -57 c53 -31 112 -65 130
-76 l33 -20 106 99 c58 54 122 112 142 130 20 18 30 32 23 33 -8 0 -11 9 -8
24 3 19 1 23 -15 19 -19 -5 -21 -22 -4 -36 6 -5 -7 -7 -27 -5 -37 4 -39 2
-129 -110 -50 -62 -94 -111 -96 -108 -3 3 40 61 96 130 56 69 93 122 84 119
-15 -6 31 58 100 140 18 20 18 21 12 2 -8 -26 -3 -20 89 95 l76 95 -67 21
c-50 16 -71 18 -79 10 -6 -6 -78 -130 -159 -276 -82 -146 -150 -267 -153 -270
-3 -3 -2 11 2 30 3 18 11 37 16 40 6 4 8 15 4 26 -4 14 -3 15 4 5 7 -10 11
-10 17 -1 4 6 2 17 -4 23 -15 15 -14 27 4 27 9 0 12 -6 9 -17 -3 -10 26 38 66
107 99 172 113 200 97 194 -13 -5 -47 82 -47 120 0 9 -4 15 -9 12 -5 -4 -11
-1 -13 6 -3 7 -8 1 -11 -14z m-310 -298 c-1 -10 -5 -16 -9 -14 -5 3 -6 10 -3
15 4 5 1 9 -5 9 -6 0 -8 5 -5 10 9 15 24 2 22 -20z m33 -35 c14 -19 14 -19 -2
-6 -10 7 -18 18 -18 24 0 6 1 8 3 6 1 -2 9 -13 17 -24z"/>
<path d="M2761 4291 c-33 -20 -61 -39 -61 -42 0 -5 71 -62 284 -229 39 -30 67
-49 62 -42 -4 7 1 26 12 45 l20 32 -128 136 -129 136 -60 -36z"/>
<path d="M3535 4300 c-9 -16 -13 -30 -11 -30 3 0 12 14 21 30 9 17 13 30 11
30 -3 0 -12 -13 -21 -30z"/>
<path d="M3713 4263 c-102 -119 -249 -308 -221 -283 4 3 29 33 56 68 28 34 53
58 57 52 3 -5 3 -10 -2 -10 -4 0 -1 -4 7 -10 9 -6 17 -5 21 2 11 18 -1 37 -19
31 -12 -4 -14 -3 -7 5 7 7 30 7 72 0 l63 -9 80 72 c44 40 80 74 80 76 0 4
-128 63 -135 63 -2 0 -25 -26 -52 -57z"/>
<path d="M3161 4303 c-1 -7 13 -55 29 -106 33 -103 34 -111 21 -102 -5 3 -13
0 -17 -6 -5 -8 -3 -9 6 -4 10 6 12 4 7 -8 -4 -10 0 -20 9 -25 9 -5 15 -12 15
-16 -2 -9 30 -69 34 -64 2 2 -17 73 -44 158 -53 174 -59 190 -60 173z"/>
<path d="M3100 4297 c0 -15 41 -89 47 -84 3 3 -7 25 -21 49 -14 24 -26 39 -26
35z"/>
<path d="M2606 4198 c-31 -23 -56 -44 -56 -47 0 -5 81 -54 246 -148 l42 -24
30 42 31 42 -111 88 c-61 49 -114 89 -118 89 -4 0 -33 -19 -64 -42z"/>
<path d="M3156 4187 c3 -10 9 -15 12 -12 3 3 0 11 -7 18 -10 9 -11 8 -5 -6z"/>
<path d="M3988 4169 c42 -31 43 -32 25 -52 -18 -20 -18 -20 9 -2 l28 17 -44
34 c-25 19 -48 34 -52 34 -5 0 11 -14 34 -31z"/>
<path d="M3644 3987 c-306 -278 -352 -318 -356 -309 -1 5 -93 61 -203 125
-149 87 -206 115 -223 111 -15 -4 -22 -2 -22 7 -1 10 -5 8 -15 -5 -12 -16 -17
-17 -30 -6 -13 11 -15 9 -15 -13 0 -34 25 -57 61 -57 17 0 28 -4 25 -9 -3 -5
1 -12 10 -15 9 -4 13 -2 8 5 -4 7 -1 10 7 7 8 -3 13 -11 12 -17 -2 -6 0 -10 5
-9 4 1 41 -14 82 -34 235 -110 291 -131 303 -115 14 17 70 30 60 14 -3 -6 86
52 199 128 l204 139 53 119 c29 66 51 120 49 122 -2 2 -98 -83 -214 -188z
m-779 -97 c4 -6 10 -8 15 -5 12 8 73 -21 94 -44 26 -28 12 -40 -17 -14 -12 11
-43 28 -69 38 -27 10 -48 22 -48 26 0 12 17 11 25 -1z"/>
<path d="M3056 4155 c4 -8 11 -15 16 -15 6 0 5 6 -2 15 -7 8 -14 15 -16 15 -2
0 -1 -7 2 -15z"/>
<path d="M3181 4140 c14 -31 19 -36 19 -24 0 6 -7 19 -16 30 -14 18 -14 18 -3
-6z"/>
<path d="M3549 4093 c-13 -16 -12 -17 4 -4 16 13 21 21 13 21 -2 0 -10 -8 -17
-17z"/>
<path d="M4027 4079 c-13 -13 -31 -25 -38 -27 -20 -5 -39 -23 -39 -36 0 -6 5
-4 10 4 5 8 10 11 10 5 0 -5 7 -1 15 9 8 11 15 16 15 10 0 -5 7 0 15 10 8 11
15 15 15 8 0 -7 -9 -17 -19 -24 -15 -9 -17 -15 -9 -25 14 -18 31 -16 24 2 -6
17 20 34 46 30 28 -5 29 10 3 35 l-24 22 -24 -23z m43 -13 c0 -7 -6 -13 -14
-13 -11 0 -13 9 -7 35 2 9 21 -11 21 -22z"/>
<path d="M3509 4043 c-13 -16 -12 -17 4 -4 16 13 21 21 13 21 -2 0 -10 -8 -17
-17z"/>
<path d="M3892 4036 c-46 -33 -53 -43 -14 -20 19 10 38 25 44 32 15 17 8 14
-30 -12z"/>
<path d="M3594 4029 c0 -21 30 -18 34 4 2 10 -3 15 -15 14 -10 0 -19 -9 -19
-18z"/>
<path d="M4120 4046 c0 -2 8 -10 18 -17 15 -13 16 -12 3 4 -13 16 -21 21 -21
13z"/>
<path d="M3078 3996 c-16 -32 -16 -35 1 -50 17 -16 19 -15 36 10 22 35 45 17
26 -20 -23 -43 6 -63 32 -22 15 22 14 25 -32 70 l-47 46 -16 -34z"/>
<path d="M4040 4020 c0 -5 7 -7 15 -4 8 4 15 8 15 10 0 2 -7 4 -15 4 -8 0 -15
-4 -15 -10z"/>
<path d="M3886 3986 c-21 -18 -36 -38 -33 -43 3 -5 0 -10 -8 -10 -8 0 -15 5
-15 11 0 15 -23 -11 -26 -29 -1 -8 2 -12 8 -9 7 4 8 2 4 -4 -4 -6 -13 -9 -21
-6 -8 4 -12 11 -9 16 9 15 -30 -8 -46 -26 -7 -9 -19 -16 -26 -16 -8 0 -14 -5
-14 -11 0 -5 -4 -8 -9 -5 -4 3 -16 -3 -26 -14 -10 -11 -15 -20 -10 -20 4 0 2
-7 -5 -15 -7 -8 -17 -12 -22 -9 -6 4 -5 10 3 15 8 5 10 9 4 9 -17 -1 -47 -28
-36 -34 5 -3 12 -1 14 4 3 6 4 5 3 -2 -2 -7 -14 -13 -27 -13 -30 -1 -101 -43
-94 -55 3 -5 0 -12 -6 -16 -8 -4 -9 -3 -5 4 10 16 -5 14 -28 -3 -21 -16 -16
-32 6 -19 7 5 20 9 28 11 8 1 16 7 18 12 2 6 11 11 19 11 10 0 13 6 9 16 -5
13 -3 14 6 6 10 -8 30 0 76 27 75 45 80 50 65 59 -6 4 4 14 26 25 36 17 36 17
14 -2 -13 -11 -23 -22 -23 -25 0 -12 17 -6 37 13 12 11 23 17 27 14 3 -3 8 2
12 11 3 9 13 16 21 16 8 0 24 10 35 23 11 12 17 17 14 10 -5 -8 0 -8 18 0 14
7 20 15 14 18 -6 4 -7 12 -3 19 6 9 4 11 -5 5 -9 -5 -11 -4 -6 4 4 6 11 9 16
6 4 -3 10 -1 12 4 1 5 10 2 18 -7 13 -14 12 -15 -3 -9 -9 3 -19 2 -22 -3 -4
-6 0 -10 8 -10 21 0 68 26 60 33 -3 4 -12 2 -19 -4 -8 -7 -14 -6 -20 2 -4 7
-3 9 4 5 6 -3 13 -2 17 4 4 6 13 7 23 1 20 -10 42 -4 42 11 0 6 -7 4 -17 -3
-15 -13 -15 -12 -4 9 12 22 11 23 -8 13 -13 -7 -22 -8 -26 -1 -9 15 -17 12
-59 -24z m54 19 c0 -2 -10 -10 -22 -16 -21 -11 -22 -11 -9 4 13 16 31 23 31
12z m-167 -132 c-4 -11 -8 -13 -11 -5 -2 7 -9 9 -15 5 -7 -4 -6 1 2 10 16 20
33 13 24 -10z m-183 -108 c0 -2 -9 -9 -20 -15 -12 -6 -20 -7 -20 -1 0 5 8 12
18 14 9 3 18 5 20 6 1 0 2 -1 2 -4z"/>
<path d="M4164 4012 c3 -5 0 -13 -6 -15 -9 -4 -10 -6 -1 -6 17 -1 25 16 12 25
-7 4 -9 3 -5 -4z"/>
<path d="M2364 3928 c-19 -39 -32 -74 -27 -78 7 -7 247 -81 248 -77 0 1 12 28
27 59 32 67 44 53 -110 121 l-102 46 -36 -71z"/>
<path d="M2883 3990 c-13 -5 -23 -15 -23 -22 0 -10 2 -10 9 1 7 11 12 9 25
-11 20 -31 89 -70 110 -62 20 8 21 33 1 60 -8 12 -12 23 -10 26 3 3 -1 5 -7 6
-7 1 -29 4 -48 7 -19 2 -45 0 -57 -5z"/>
<path d="M4098 3969 c-21 -11 -38 -22 -38 -24 0 -3 18 4 40 15 22 11 40 23 40
25 0 7 0 7 -42 -16z"/>
<path d="M4125 3951 c-16 -10 -81 -44 -144 -77 l-114 -58 86 -27 87 -27 110
41 c60 22 110 44 110 49 0 14 -84 117 -95 117 -5 0 -23 -8 -40 -18z"/>
<path d="M2747 3922 c-33 -34 -33 -40 -5 -38 11 0 22 8 24 16 1 8 5 23 9 33
10 24 3 21 -28 -11z"/>
<path d="M3898 3864 c-27 -13 -48 -27 -48 -29 0 -3 23 6 50 20 28 14 50 28 50
30 0 7 1 7 -52 -21z"/>
<path d="M2703 3795 c-11 -30 -20 -55 -20 -55 1 0 32 -8 68 -19 l66 -19 16 50
16 50 -55 24 c-30 13 -58 24 -62 24 -4 0 -17 -25 -29 -55z"/>
<path d="M2295 3830 c-4 -6 -17 -41 -30 -79 -17 -50 -20 -71 -12 -75 7 -2 3
-5 -9 -5 -18 -1 -22 -10 -32 -78 -6 -43 -9 -79 -8 -80 1 -2 44 -6 94 -9 l92
-7 0 27 c0 14 3 26 6 26 3 0 24 -13 47 -29 35 -24 57 -30 129 -36 99 -8 119
-2 86 25 l-23 18 28 -5 c21 -4 27 -2 27 13 1 19 1 19 15 0 8 -11 21 -16 30
-13 8 4 15 2 15 -2 0 -5 -7 -11 -15 -15 -8 -3 -15 -12 -15 -19 0 -16 122 -27
298 -27 56 0 102 -4 102 -9 0 -4 37 -11 82 -14 46 -4 85 -12 89 -19 5 -8 76 6
271 56 145 37 269 69 277 72 11 3 6 13 -17 37 -18 18 -32 38 -32 45 0 7 -2 12
-5 12 -2 0 -115 -41 -251 -91 -135 -49 -248 -88 -251 -85 -8 7 26 22 198 87
90 33 173 64 184 69 15 5 1 11 -52 19 l-72 13 -122 -63 c-84 -44 -124 -70
-130 -86 -5 -13 -15 -23 -23 -23 -20 0 -549 99 -561 105 -5 3 5 3 23 0 21 -3
32 0 32 8 0 9 2 9 8 0 5 -9 460 -93 502 -93 4 0 10 10 14 23 3 12 5 22 5 22 0
0 4 13 10 28 9 23 8 29 -7 33 -23 8 -187 78 -277 119 l-74 34 -14 -43 -15 -42
184 -54 c101 -30 184 -57 184 -62 0 -13 -17 -10 -174 38 -83 25 -293 88 -466
140 -173 52 -320 96 -327 99 -7 2 -15 0 -18 -5z m188 -100 c19 -1 20 -2 5 -10
-11 -7 -14 -17 -10 -32 5 -21 4 -22 -11 -9 -14 11 -20 11 -33 0 -15 -12 -16
-11 -10 8 5 15 2 25 -11 32 -17 10 -16 10 3 11 12 0 25 8 29 18 8 16 8 16 12
0 3 -10 14 -18 26 -18z m294 -97 c-3 -10 -5 -2 -5 17 0 19 2 27 5 18 2 -10 2
-26 0 -35z m-432 27 c27 -7 27 -8 5 -8 -14 0 -38 4 -55 8 -27 7 -27 8 -5 8 14
0 39 -4 55 -8z m155 -29 c47 -11 79 -19 71 -20 -18 -1 -184 29 -190 35 -9 8
37 2 119 -15z m165 -31 c27 -7 27 -8 5 -8 -14 0 -38 4 -55 8 -27 7 -27 8 -5 8
14 0 39 -4 55 -8z"/>
<path d="M3804 3814 c-18 -14 -18 -14 6 -3 31 14 36 19 24 19 -6 0 -19 -7 -30
-16z"/>
<path d="M4260 3816 c0 -2 7 -7 16 -10 8 -3 12 -2 9 4 -6 10 -25 14 -25 6z"/>
<path d="M3829 3772 c0 -10 -3 -12 -6 -5 -10 25 -73 -57 -73 -94 0 -23 0 -23
43 -6 23 9 46 20 52 25 5 4 17 8 27 8 16 0 25 28 19 63 -2 11 24 8 37 -5 7 -7
12 -8 12 -3 0 5 7 0 15 -11 8 -10 15 -14 15 -8 0 24 -42 48 -90 50 -41 2 -50
0 -51 -14z m12 -56 c5 3 9 1 9 -5 0 -5 -9 -9 -19 -8 -12 1 -17 6 -13 16 4 10
7 11 10 3 2 -7 8 -10 13 -6z m39 4 c0 -5 -5 -10 -11 -10 -5 0 -7 5 -4 10 3 6
8 10 11 10 2 0 4 -4 4 -10z m-103 -42 c-3 -8 -6 -5 -6 6 -1 11 2 17 5 13 3 -3
4 -12 1 -19z"/>
<path d="M4290 3781 c0 -6 4 -13 10 -16 6 -3 7 1 4 9 -7 18 -14 21 -14 7z"/>
<path d="M3700 3760 c-9 -6 -10 -10 -3 -10 6 0 15 5 18 10 8 12 4 12 -15 0z"/>
<path d="M3648 3734 c-38 -20 -36 -28 2 -9 17 9 30 18 30 20 0 7 -1 6 -32 -11z"/>
<path d="M3915 3723 c-18 -14 -18 -15 -2 -9 10 3 23 6 28 6 5 0 9 5 9 10 0 14
-12 12 -35 -7z"/>
<path d="M4020 3693 c0 -39 -3 -44 -32 -56 l-33 -14 33 -7 c17 -4 32 -11 32
-16 0 -4 18 -3 40 2 23 6 38 13 36 16 -3 2 4 18 16 35 15 21 17 29 7 25 -52
-19 -55 -19 -77 19 l-22 38 0 -42z"/>
<path d="M4336 3697 c3 -10 9 -15 12 -12 3 3 0 11 -7 18 -10 9 -11 8 -5 -6z"/>
<path d="M3396 3665 c-11 -8 -16 -18 -12 -22 4 -4 11 -2 15 6 5 7 11 12 15 12
20 -3 26 0 21 9 -8 13 -16 12 -39 -5z"/>
<path d="M3480 3645 c-14 -8 -20 -14 -14 -15 5 0 19 7 30 15 24 18 16 19 -16
0z"/>
<path d="M3350 3630 c0 -5 -7 -10 -15 -10 -8 0 -15 -4 -15 -10 0 -6 10 -5 25
2 25 11 34 28 15 28 -5 0 -10 -4 -10 -10z"/>
<path d="M4151 3596 c-91 -23 -166 -46 -168 -52 -5 -15 57 -94 73 -94 18 0
327 49 330 53 1 1 -8 32 -19 70 -14 48 -25 67 -36 66 -9 -1 -90 -20 -180 -43z"/>
<path d="M3424 3614 c-18 -14 -18 -15 4 -4 12 6 22 13 22 15 0 8 -5 6 -26 -11z"/>
<path d="M3375 3590 c-3 -6 1 -7 9 -4 18 7 21 14 7 14 -6 0 -13 -4 -16 -10z"/>
<path d="M3873 3478 c2 -7 12 -11 22 -10 16 3 17 2 6 -12 -8 -10 -21 -14 -32
-11 -11 4 -19 2 -19 -4 0 -16 37 -14 52 3 11 11 15 11 26 -3 11 -14 12 -13 2
6 -15 31 -67 59 -57 31z"/>
<path d="M2173 3466 c4 -10 7 -44 7 -77 l0 -59 124 0 124 0 -14 67 c-8 37 -16
68 -18 70 -2 2 -54 6 -116 10 -105 6 -113 5 -107 -11z"/>
<path d="M3767 3462 c-16 -18 -13 -62 4 -62 14 0 11 28 -3 33 -9 3 -8 10 6 26
11 11 17 21 14 21 -3 0 -12 -8 -21 -18z"/>
<path d="M3465 3429 c-85 -22 -159 -37 -170 -33 -11 4 -87 12 -168 18 l-148
11 3 -35 3 -35 148 -3 c187 -3 199 -22 15 -22 -152 -1 -421 -10 -427 -15 -9
-9 33 -95 47 -95 20 0 481 59 505 64 13 3 17 -1 15 -12 -3 -16 -46 -23 -658
-102 -214 -27 -377 -49 -417 -56 -31 -5 -31 -6 -21 -37 6 -18 12 -33 13 -35 1
-1 82 11 179 28 98 17 181 28 187 25 17 -11 9 -34 -18 -50 -28 -16 -28 -16 -3
-11 99 21 130 30 130 37 0 4 -21 11 -46 15 -25 3 -42 10 -37 14 6 6 660 120
688 120 3 0 5 -7 5 -15 0 -10 10 -15 33 -15 45 0 354 -19 397 -24 19 -3 27 -2
18 0 -10 3 -18 15 -18 27 0 20 0 20 16 1 8 -10 12 -13 8 -5 -5 9 -3 12 4 7 7
-4 12 -14 12 -22 0 -10 13 -14 53 -13 28 0 47 3 40 6 -9 3 -6 11 8 26 19 20
19 22 3 34 -19 14 -92 9 -107 -6 -13 -13 -47 -1 -47 16 0 11 -7 14 -22 10 -13
-3 -93 -8 -178 -12 -85 -3 -170 -8 -187 -11 -28 -4 -33 -2 -33 15 0 26 -2 26
275 51 266 23 255 23 255 11 0 -6 -9 -8 -19 -6 -11 2 -22 -3 -25 -12 -5 -12
-1 -14 18 -9 14 3 58 7 98 7 57 1 68 4 48 11 -14 5 -32 7 -41 5 -9 -2 -24 0
-33 5 -10 6 -16 5 -16 -2 0 -6 -5 -8 -11 -4 -24 14 22 22 289 45 l272 23 0 53
c0 29 -3 53 -7 53 -7 0 -369 -55 -458 -70 -33 -6 -177 -28 -320 -50 -143 -22
-275 -42 -292 -45 -24 -4 -33 -2 -33 8 0 9 50 21 183 41 100 16 195 31 210 34
l29 5 -44 38 c-23 21 -45 38 -48 38 -3 0 -72 -18 -155 -40z m385 -209 c0 -5
-5 -10 -11 -10 -5 0 -7 5 -4 10 3 6 8 10 11 10 2 0 4 -4 4 -10z"/>
<path d="M2485 3438 c3 -13 9 -40 13 -62 l7 -39 170 3 c94 2 183 3 199 3 27 0
28 1 23 39 -3 22 -7 42 -10 44 -4 5 -156 19 -310 29 l-98 6 6 -23z"/>
<path d="M3805 3450 c3 -5 1 -11 -5 -15 -5 -3 -10 -13 -10 -20 0 -19 28 -8 40
15 7 14 5 19 -10 23 -11 3 -18 1 -15 -3z"/>
<path d="M4115 3274 c-110 -8 -213 -12 -228 -9 -24 4 -26 3 -14 -9 7 -8 21
-34 30 -58 l17 -44 228 -11 c171 -8 229 -8 234 0 4 7 8 42 8 80 l0 67 -37 -1
c-21 -1 -128 -8 -238 -15z"/>
<path d="M3743 3253 c9 -2 25 -2 35 0 9 3 1 5 -18 5 -19 0 -27 -2 -17 -5z"/>
<path d="M3870 3189 c0 -5 5 -7 10 -4 6 3 10 8 10 11 0 2 -4 4 -10 4 -5 0 -10
-5 -10 -11z"/>
<path d="M3200 3166 c-30 -8 -40 -15 -30 -19 8 -4 4 -5 -9 -3 -22 5 -58 -3
-225 -46 -29 -7 -36 -12 -25 -19 9 -5 10 -9 2 -9 -6 0 -14 4 -17 8 -7 11 -106
-9 -106 -21 0 -6 22 -7 53 -3 28 3 69 6 90 6 21 0 36 3 34 8 -3 4 19 6 48 6
73 -2 107 5 101 22 -3 7 -1 16 5 19 5 4 7 10 4 15 -3 4 5 6 17 2 l22 -5 -23
-9 c-12 -4 -19 -13 -16 -19 5 -7 11 -7 17 -1 6 6 17 8 24 5 8 -3 14 1 14 10 0
8 7 18 16 21 14 6 15 4 4 -9 -12 -14 -8 -14 31 1 54 21 51 18 43 38 -7 18 -12
19 -74 2z m60 -16 c-8 -5 -19 -10 -25 -10 -5 0 -3 5 5 10 8 5 20 10 25 10 6 0
3 -5 -5 -10z m-173 -36 c-3 -3 -12 -4 -19 -1 -8 3 -5 6 6 6 11 1 17 -2 13 -5z
m-47 -14 c0 -5 -2 -10 -4 -10 -3 0 -8 5 -11 10 -3 6 -1 10 4 10 6 0 11 -4 11
-10z"/>
<path d="M3290 3135 c0 -18 -8 -29 -27 -37 -33 -14 -39 -15 -58 -17 -9 -1 -12
-7 -8 -18 5 -15 3 -16 -8 -5 -18 17 -34 15 -19 -3 6 -8 10 -20 7 -27 -4 -9 -6
-7 -6 4 -1 24 -20 27 -71 10 -50 -17 -60 -27 -55 -54 4 -19 -29 -48 -55 -48
-8 1 -2 6 14 13 27 12 46 47 25 47 -5 0 -9 -6 -9 -14 0 -16 -34 -31 -49 -21
-5 3 -12 1 -16 -5 -3 -5 -2 -10 4 -10 6 0 7 -8 4 -17 -5 -14 -8 -14 -11 -2 -3
7 -10 17 -16 22 -17 11 15 27 44 21 23 -4 23 -3 5 6 -19 10 -19 10 3 6 14 -3
22 1 22 9 0 12 -7 12 -40 0 -71 -25 -72 -27 -44 -62 15 -20 30 -30 39 -26 8 3
12 10 8 16 -3 5 -1 7 5 3 12 -7 102 33 102 47 0 4 4 6 9 2 6 -3 35 8 67 24 31
16 52 31 48 33 -5 3 -3 3 4 1 7 -1 30 6 50 16 l38 19 479 -104 c264 -57 491
-106 505 -109 22 -5 29 0 42 29 16 33 16 34 -5 39 -12 3 -248 41 -524 84 -376
58 -503 81 -503 91 0 10 8 12 28 8 15 -3 70 -13 122 -21 93 -14 109 -12 110
17 0 4 10 4 23 -1 12 -4 28 -6 36 -3 9 3 11 0 6 -8 -6 -10 -4 -12 9 -7 24 9
279 -55 263 -66 -7 -5 -1 -6 15 -3 15 4 36 2 45 -3 17 -10 404 -74 408 -69 5
8 32 154 29 157 -3 3 -999 60 -1066 61 -23 0 -28 -4 -28 -25z m-25 -68 c-29
-17 -54 -17 -48 0 5 11 8 12 13 2 6 -9 12 -8 25 5 10 9 20 14 24 11 3 -4 -3
-12 -14 -18z m-150 -37 c-6 -10 6 -14 35 -11 13 2 13 0 1 -8 -8 -5 -20 -7 -28
-4 -7 3 -13 0 -13 -7 0 -6 -5 -8 -11 -4 -8 4 -7 9 2 15 11 7 11 9 -1 9 -13 0
-13 1 0 10 19 12 23 12 15 0z m42 4 c-3 -3 -12 -4 -19 -1 -8 3 -5 6 6 6 11 1
17 -2 13 -5z"/>
<path d="M2746 3045 c-3 -8 -11 -15 -18 -15 -9 0 -9 3 2 10 18 12 -42 2 -80
-13 -14 -6 -32 -9 -41 -8 -9 1 -16 -5 -16 -12 0 -8 10 -14 23 -14 13 0 21 3
19 7 -3 4 2 11 11 14 12 5 14 1 9 -17 -6 -18 -5 -20 6 -9 8 7 14 18 14 25 0 6
9 13 20 14 11 2 14 0 8 -3 -7 -3 -13 -12 -13 -19 0 -14 -28 -29 -48 -26 -7 1
-11 -4 -10 -11 2 -8 -9 -14 -30 -16 -27 -3 -31 -6 -22 -17 7 -8 7 -15 1 -19
-5 -4 -12 -2 -16 4 -3 5 -14 10 -23 10 -16 -1 -16 -2 0 -14 10 -7 15 -16 11
-19 -10 -11 -73 -8 -73 3 0 5 15 7 33 5 l32 -5 -35 13 -35 14 44 7 c33 5 41 9
33 19 -8 9 -6 16 9 25 23 15 25 32 3 32 -8 0 -13 -4 -10 -8 2 -4 -8 -8 -22 -7
-16 0 -26 -5 -24 -12 2 -15 -14 -18 -22 -4 -7 10 -54 2 -62 -11 -4 -6 6 -8 27
-4 25 4 29 4 14 -3 -27 -13 -68 -13 -60 -1 8 13 13 13 -75 -11 -41 -11 -80
-21 -87 -21 -7 -1 -10 -5 -7 -10 3 -5 10 -5 16 -2 6 4 8 3 5 -3 -4 -6 3 -33
15 -61 18 -42 26 -51 42 -47 12 2 25 4 29 4 5 1 5 5 2 11 -3 5 0 7 9 4 8 -3
21 -2 28 2 7 5 21 10 31 11 10 2 28 10 40 18 12 7 24 14 27 14 36 -4 92 25
185 92 61 45 112 85 113 90 6 16 -26 10 -32 -6z m-316 -112 c0 -3 -9 -3 -20 0
-11 3 -20 2 -20 -1 0 -4 -14 -7 -31 -8 -35 -1 -27 12 11 18 27 4 60 -1 60 -9z
m9 -22 c7 -5 9 -11 5 -14 -5 -3 -15 1 -22 9 -14 16 -5 18 17 5z m-149 -44 c0
-5 -4 -5 -10 -2 -5 3 -10 14 -10 23 0 15 2 15 10 2 5 -8 10 -19 10 -23z m179
9 c-2 -2 -15 -7 -29 -10 l-25 -7 25 15 c21 12 42 14 29 2z m-159 -61 c0 -5 -5
-3 -10 5 -5 8 -10 20 -10 25 0 6 5 3 10 -5 5 -8 10 -19 10 -25z"/>
<path d="M3710 3050 c8 -5 22 -9 30 -9 10 0 8 3 -5 9 -27 12 -43 12 -25 0z"/>
<path d="M3049 2924 c-129 -64 -326 -161 -439 -216 -113 -55 -207 -102 -210
-104 -2 -3 21 -29 51 -59 l54 -55 160 106 c140 93 159 109 157 130 -2 16 6 34
27 54 24 24 38 30 73 30 l43 -1 -35 -30 c-19 -16 51 26 155 94 105 68 192 120
194 115 3 -9 84 -48 98 -48 3 0 2 8 -2 18 -5 13 -3 14 6 5 6 -6 17 -9 24 -7 7
3 15 -5 19 -18 5 -19 40 -36 213 -105 114 -45 209 -81 210 -79 1 1 -30 21 -70
43 -39 22 -128 72 -197 110 -78 44 -155 79 -205 93 -44 12 -83 26 -86 31 -3 5
-111 -43 -240 -107z"/>
<path d="M2783 3020 c-24 -10 -57 -54 -51 -68 1 -5 41 5 86 21 79 29 83 31 60
43 -27 15 -63 17 -95 4z"/>
<path d="M3828 3023 c7 -3 16 -2 19 1 4 3 -2 6 -13 5 -11 0 -14 -3 -6 -6z"/>
<path d="M2570 2976 c-15 -15 -12 -30 3 -18 7 6 24 9 38 6 13 -2 18 -2 11 2
-6 3 -10 9 -8 13 7 11 -33 8 -44 -3z"/>
<path d="M3157 2892 c-64 -43 -177 -116 -250 -164 -72 -47 -187 -122 -254
-165 l-123 -80 28 -26 28 -27 345 261 c290 220 370 284 347 278 -1 0 -56 -35
-121 -77z"/>
<path d="M3621 2956 c2 -2 18 -6 34 -9 17 -2 37 -7 45 -10 8 -3 31 -10 50 -15
19 -6 44 -13 55 -17 13 -4 7 4 -15 24 -32 28 -41 30 -104 31 -38 0 -67 -2 -65
-4z"/>
<path d="M3290 2926 c0 -8 -107 -105 -237 -217 -131 -112 -271 -232 -311 -268
l-73 -64 51 -30 c41 -24 54 -27 63 -17 8 9 8 11 1 7 -12 -7 -69 17 -79 32 -5
9 94 79 117 83 7 2 18 10 25 18 7 8 13 11 13 6 0 -5 11 1 25 14 20 18 27 21
39 11 12 -10 14 -9 10 6 -4 14 6 25 36 42 22 12 57 41 78 64 20 23 52 57 69
77 47 50 79 89 116 137 18 23 37 41 42 39 6 -2 9 -27 8 -57 -1 -30 1 -46 4
-36 4 15 7 16 21 5 12 -9 11 -6 -2 10 -40 46 -6 28 113 -60 68 -50 133 -92
145 -93 11 -1 55 -5 96 -9 l75 -7 -175 96 c-96 53 -196 108 -222 121 -33 17
-48 31 -48 44 0 11 4 20 10 20 5 0 8 6 6 13 -1 6 -1 9 1 4 3 -4 9 -5 13 -2 5
3 7 -3 5 -14 -2 -11 3 -22 12 -25 12 -5 14 -1 10 14 -3 11 -1 18 4 14 5 -3 9
-1 9 4 0 6 -14 15 -31 21 -40 14 -39 14 -39 -3z"/>
<path d="M3370 2901 c0 -5 -3 -16 -6 -25 -10 -26 10 -18 23 9 9 20 8 25 -3 25
-8 0 -14 -4 -14 -9z"/>
<path d="M3427 2861 l-17 -29 69 -36 c79 -41 83 -42 74 -19 -6 14 -3 14 25 -3
25 -14 34 -16 44 -6 19 19 29 14 22 -13 -8 -34 12 -55 94 -101 l65 -37 17 24
c10 12 25 35 35 51 16 27 15 28 -7 37 -13 5 -104 41 -203 81 -99 40 -185 74
-190 76 -6 3 -18 -9 -28 -25z"/>
<path d="M2455 2815 c-49 -18 -105 -39 -122 -46 l-33 -14 43 -66 43 -67 122
63 c68 34 123 66 124 70 1 10 -72 95 -80 94 -4 -1 -47 -16 -97 -34z"/>
<path d="M3339 2757 c10 -13 11 -20 2 -30 -8 -10 -3 -21 22 -44 l32 -31 17 22
c16 22 16 24 -35 61 -29 21 -46 31 -38 22z"/>
<path d="M3120 2474 c-91 -128 -168 -234 -172 -234 -3 0 -4 -8 -1 -18 3 -13
13 -18 31 -17 34 2 114 54 105 68 -3 6 -1 7 5 3 6 -4 21 -2 31 4 17 9 19 15
11 36 -14 35 -13 36 10 22 11 -7 18 -18 16 -25 -3 -7 1 -10 8 -7 19 7 126 242
126 278 0 29 3 27 45 -39 26 -40 76 -97 117 -132 71 -62 85 -73 73 -53 -4 6 5
26 18 44 l26 33 -137 136 c-76 76 -139 137 -142 136 -3 0 -79 -106 -170 -235z
m133 21 c-18 -37 -27 -43 -39 -23 -4 6 4 21 20 35 36 31 39 29 19 -12z"/>
<path d="M3898 2700 c12 -5 22 -12 22 -15 0 -4 -16 -26 -36 -50 l-35 -43 23
-8 c21 -7 58 -6 67 1 7 8 -26 44 -34 37 -5 -4 -5 -1 -1 6 11 18 34 15 32 -5
-1 -13 5 -17 22 -15 12 2 22 -2 22 -8 0 -7 -7 -10 -15 -6 -8 3 -16 1 -16 -4
-1 -6 -2 -16 -3 -22 -1 -14 24 -36 66 -57 25 -13 29 -11 65 24 21 21 32 35 24
30 -10 -5 -12 -4 -7 4 4 6 15 10 23 9 24 -4 27 19 3 25 -11 3 -20 1 -20 -4 0
-5 -4 -9 -10 -9 -5 0 -7 7 -3 16 5 14 1 16 -21 12 -21 -4 -26 -2 -21 9 3 11 1
13 -10 9 -8 -3 -15 -1 -15 5 0 6 -5 7 -12 3 -7 -5 -5 -11 7 -21 11 -7 15 -13
9 -13 -19 0 -35 17 -29 31 4 10 -2 15 -17 16 -19 2 -20 0 -8 -8 12 -9 12 -10
-3 -5 -10 3 -25 6 -33 6 -8 0 -14 5 -14 11 0 6 7 8 16 5 15 -6 15 -4 3 11 -19
25 -32 33 -49 32 -8 0 -5 -4 8 -9z m-4 -106 c3 -8 2 -12 -4 -9 -6 3 -10 10
-10 16 0 14 7 11 14 -7z m153 -5 c-12 -9 -23 -13 -25 -8 -2 5 -10 9 -18 9 -32
0 -4 15 30 16 l35 1 -22 -18z m21 -42 c-60 -23 -108 -16 -108 17 0 6 4 6 9 -2
13 -21 71 -21 84 -1 9 14 14 15 25 7 11 -10 10 -14 -10 -21z"/>
<path d="M3142 2668 c-17 -17 -15 -24 16 -43 l27 -18 -22 25 c-18 19 -20 27
-11 36 7 7 10 12 7 12 -3 0 -10 -5 -17 -12z"/>
<path d="M3484 2651 c4 -6 -1 -22 -10 -36 -16 -25 -16 -27 12 -56 l29 -30 24
28 c14 15 28 27 33 26 19 -6 5 7 -43 42 -28 20 -48 32 -45 26z"/>
<path d="M3560 2627 c0 -2 39 -33 86 -67 l86 -63 127 -4 126 -4 -32 20 c-90
56 -135 72 -251 87 -64 8 -122 20 -129 26 -7 6 -13 8 -13 5z"/>
<path d="M3100 2581 c-35 -10 -56 -55 -41 -88 11 -25 12 -25 31 -8 11 10 20
22 20 27 0 5 9 19 20 30 32 35 18 52 -30 39z"/>
<path d="M2939 2454 c-23 -26 -23 -26 -1 -13 12 8 22 17 22 21 0 16 19 7 49
-24 17 -17 31 -27 31 -21 0 12 -56 63 -69 63 -4 0 -18 -12 -32 -26z"/>
<path d="M3651 2468 c-1 -11 -6 -15 -15 -12 -11 4 -13 0 -9 -15 3 -12 10 -24
16 -28 6 -4 8 0 4 10 -4 11 -2 14 9 10 16 -6 17 2 4 32 -7 17 -9 17 -9 3z"/>
<path d="M3687 2463 c-4 -3 -7 -11 -7 -17 0 -6 5 -5 12 2 6 6 9 14 7 17 -3 3
-9 2 -12 -2z"/>
<path d="M3788 2458 c6 -8 36 -31 66 -52 l55 -38 56 48 c30 26 55 48 55 48 0
1 -55 2 -122 4 -103 3 -120 1 -110 -10z"/>
<path d="M3705 2440 c-3 -5 -1 -10 4 -10 6 0 11 5 11 10 0 6 -2 10 -4 10 -3 0
-8 -4 -11 -10z"/>
<path d="M3665 2421 c-10 -18 54 -25 71 -9 3 4 -9 4 -26 2 -21 -4 -30 -2 -25
5 3 6 2 11 -4 11 -5 0 -12 -4 -16 -9z"/>
<path d="M3665 2386 c11 -8 27 -16 35 -16 20 0 1 16 -30 25 -24 7 -24 7 -5 -9z"/>
<path d="M3869 2367 c6 -8 7 -18 3 -22 -4 -5 -1 -5 6 -1 10 6 10 11 1 22 -6 8
-14 14 -16 14 -3 0 0 -6 6 -13z"/>
<path d="M3727 2359 c7 -7 15 -10 18 -7 3 3 -2 9 -12 12 -14 6 -15 5 -6 -5z"/>
<path d="M2845 2351 c-3 -5 -2 -12 3 -15 5 -3 9 1 9 9 0 17 -3 19 -12 6z"/>
<path d="M2955 2310 c-10 -11 -16 -22 -13 -25 3 -3 13 6 22 20 20 30 16 32 -9
5z"/>
<path d="M2859 2279 c51 -24 66 -28 75 -17 6 7 7 10 2 6 -4 -4 -29 1 -55 11
-81 32 -88 32 -22 0z"/>
<path d="M2732 2280 c0 -14 2 -19 5 -12 2 6 2 18 0 25 -3 6 -5 1 -5 -13z"/>
<path d="M3740 2241 c0 -6 4 -13 10 -16 6 -3 7 1 4 9 -7 18 -14 21 -14 7z"/>
</g>
</svg>
